<svg width="530" height="156" viewBox="0 0 530 156" fill="none" xmlns="http://www.w3.org/2000/svg">
<rect width="530" height="156" rx="24" fill="#5373E7"/>
<path d="M40.35 113.094C39.908 110.416 37.88 108.752 34.838 108.752C31.744 108.752 29.248 110.182 29.248 112.652C29.248 115.278 31.328 116.11 33.226 116.526L35.306 116.942C36.814 117.28 38.14 117.826 38.14 119.256C38.14 120.582 36.684 121.336 34.89 121.336C32.81 121.336 31.718 120.27 31.328 118.476H28.832C29.118 120.92 31.172 123.338 34.838 123.338C38.036 123.338 40.532 121.778 40.532 118.996C40.532 116.318 38.296 115.304 35.748 114.836L33.772 114.446C32.42 114.16 31.64 113.666 31.64 112.548C31.64 111.274 33.2 110.78 34.578 110.78C36.242 110.78 37.49 111.43 37.88 113.094H40.35ZM55.8822 116.786C56.1682 112.34 53.6462 108.778 49.3562 108.778C45.5342 108.778 42.5702 111.586 42.5702 116.032C42.5702 120.166 45.0142 123.338 49.4342 123.338C52.8402 123.338 55.0762 121.336 55.7002 118.944H53.2562C52.6582 120.322 51.5142 121.258 49.4342 121.258C47.3802 121.258 45.1962 119.802 45.1182 116.786H55.8822ZM49.3562 110.806C51.8782 110.806 53.3082 112.782 53.3862 114.758H45.1442C45.3522 111.95 47.2762 110.806 49.3562 110.806ZM64.5645 108.778C60.4305 108.778 57.8045 111.872 57.8045 116.032C57.8045 120.296 60.3005 123.338 64.3305 123.338C67.6065 123.338 70.0765 121.076 70.5705 118.45H68.1265C67.7885 119.906 66.4105 121.258 64.4085 121.258C62.3285 121.258 60.3785 119.542 60.3785 116.006C60.3785 112.496 62.3285 110.858 64.4085 110.858C66.2545 110.858 67.6845 112.028 68.0225 113.692H70.4145C70.0765 111.3 67.9965 108.778 64.5645 108.778ZM74.9781 116.058C74.9781 112.236 77.0061 110.858 79.1641 110.858C81.3221 110.858 83.3501 112.314 83.3501 116.058C83.3501 119.646 81.3221 121.258 79.1641 121.258C77.0061 121.258 74.9781 119.802 74.9781 116.058ZM79.1641 108.778C75.9141 108.778 72.4561 110.988 72.4561 116.058C72.4561 121.128 75.9141 123.338 79.1641 123.338C82.4141 123.338 85.8721 121.128 85.8721 116.058C85.8721 110.988 82.4141 108.778 79.1641 108.778ZM91.0681 109.012H88.7021V123H91.0681V115.408C91.0681 112.392 92.4721 110.832 94.7601 110.832C97.4641 110.832 97.8281 112.704 97.8281 114.862V123H100.194V114.16C100.194 110.962 98.9721 108.778 95.5921 108.778C93.2261 108.778 91.8741 109.792 91.0681 111.118V109.012ZM113.327 111.222C112.469 109.74 111.013 108.778 108.751 108.778C105.527 108.778 102.771 111.482 102.771 116.058C102.771 120.712 105.527 123.338 108.751 123.338C111.013 123.338 112.469 122.376 113.327 120.894V123H115.693V104.15H113.327V111.222ZM113.431 116.058C113.431 119.75 111.455 121.31 109.349 121.31C106.931 121.31 105.345 119.412 105.345 116.058C105.345 112.704 106.931 110.806 109.349 110.806C111.455 110.806 113.431 112.366 113.431 116.058ZM128.239 117.15C128.239 120.452 126.133 121.466 123.923 121.466C122.233 121.466 121.219 120.582 121.219 119.256C121.219 117.332 123.949 116.682 128.239 116.266V117.15ZM123.403 123.338C125.899 123.338 127.329 122.532 128.187 121.076C128.213 121.908 128.291 122.48 128.369 123H130.761C130.475 121.674 130.371 120.088 130.397 117.722L130.423 114.498C130.449 110.546 128.733 108.726 124.859 108.726C122.155 108.726 119.451 110.416 119.243 113.432H121.687C121.791 111.69 122.909 110.65 124.885 110.65C126.653 110.65 128.057 111.482 128.057 114.056V114.394C122.337 115.018 118.593 116.006 118.593 119.308C118.593 121.882 120.777 123.338 123.403 123.338ZM140.916 108.96C140.63 108.934 140.448 108.934 140.214 108.934C138.368 109.012 136.964 109.87 136.262 111.456V109.012H133.948V123H136.314V115.668C136.314 112.574 137.406 111.378 139.59 111.378C139.98 111.378 140.422 111.404 140.916 111.482V108.96ZM150.964 109.012L147.506 119.802L143.944 109.012H141.318L146.362 123L146.258 123.286C145.634 125.47 144.88 125.574 143.32 125.574H142.358V127.55H143.58C146.726 127.55 147.402 126.614 148.442 123.598L153.434 109.012H150.964Z" fill="#ECEDEE"/>
<path d="M29.938 64.062L29.564 67.7H34.188L33.474 72.834H28.748L28.306 76.438H32.964L32.08 83H36.296L37.18 76.438H41.702L40.818 83H45.034L45.918 76.438H50.712L51.086 72.834H46.428L47.142 67.7H51.902L52.344 64.062H47.652L48.434 58.35H44.218L43.436 64.062H38.914L39.696 58.35H35.48L34.698 64.062H29.938ZM38.404 67.7H42.926L42.212 72.834H37.69L38.404 67.7ZM63.2447 79.906C60.2187 79.906 58.7567 77.798 58.4847 75.248H54.0647C54.3367 79.498 57.3967 83.442 63.1767 83.442C68.2427 83.442 72.4587 80.314 72.4587 74.874C72.4587 69.196 68.5487 66.204 64.3327 66.204C62.0207 66.204 60.4907 66.782 59.4367 67.564L60.1167 62.294H71.4727V58.35H56.2747L54.6427 71.916L58.9267 72.12C59.4367 70.93 60.9667 69.876 63.1427 69.876C65.4207 69.876 67.6987 71.508 67.6987 74.908C67.6987 78.036 65.8287 79.906 63.2447 79.906ZM83.9863 79.906C80.8923 79.906 79.3623 77.73 78.9883 75.248H74.5683C74.8403 79.77 78.2063 83.442 83.8503 83.442C89.0523 83.442 93.3703 80.926 93.3703 75.928C93.3703 73.446 91.9423 71.032 89.3923 69.944C91.2963 68.89 92.7243 66.952 92.7243 64.538C92.7243 59.88 88.4743 57.908 84.3603 57.908C78.6823 57.908 75.3163 60.866 74.7723 65.796H79.2263C79.4643 63.212 81.2323 61.444 84.0883 61.444C86.1283 61.444 87.9983 62.6 87.9983 64.742C87.9983 67.054 85.7883 68.346 82.2523 68.346H81.4363V72.018H82.4223C85.9243 72.018 88.6103 73.174 88.6103 76.064C88.6103 78.376 86.5703 79.906 83.9863 79.906ZM94.6031 62.294H107.999C102.491 67.428 97.9011 74.5 97.5271 83H102.695C103.137 74.16 106.299 68.788 112.725 62.294V58.35H94.6031V62.294ZM122.203 79.906C119.109 79.906 117.579 77.73 117.205 75.248H112.785C113.057 79.77 116.423 83.442 122.067 83.442C127.269 83.442 131.587 80.926 131.587 75.928C131.587 73.446 130.159 71.032 127.609 69.944C129.513 68.89 130.941 66.952 130.941 64.538C130.941 59.88 126.691 57.908 122.577 57.908C116.899 57.908 113.533 60.866 112.989 65.796H117.443C117.681 63.212 119.449 61.444 122.305 61.444C124.345 61.444 126.215 62.6 126.215 64.742C126.215 67.054 124.005 68.346 120.469 68.346H119.653V72.018H120.639C124.141 72.018 126.827 73.174 126.827 76.064C126.827 78.376 124.787 79.906 122.203 79.906ZM135.132 83H153.084V79.056H139.994V72.358H152.37V68.414H139.994V62.294H153.084V58.35H135.132V83ZM153.804 62.294H167.2C161.692 67.428 157.102 74.5 156.728 83H161.896C162.338 74.16 165.5 68.788 171.926 62.294V58.35H153.804V62.294Z" fill="#ECEDEE"/>
</svg>
