<svg width="530" height="156" viewBox="0 0 530 156" fill="none" xmlns="http://www.w3.org/2000/svg">
<rect width="530" height="156" rx="24" fill="#787F85"/>
<path d="M32.238 109.012H29.872V123H32.238V115.408C32.238 112.392 33.642 110.832 35.93 110.832C38.634 110.832 38.998 112.704 38.998 114.862V123H41.364V114.16C41.364 110.962 40.142 108.778 36.762 108.778C34.396 108.778 33.044 109.792 32.238 111.118V109.012ZM57.2533 116.786C57.5393 112.34 55.0173 108.778 50.7273 108.778C46.9053 108.778 43.9413 111.586 43.9413 116.032C43.9413 120.166 46.3853 123.338 50.8053 123.338C54.2113 123.338 56.4473 121.336 57.0713 118.944H54.6273C54.0293 120.322 52.8853 121.258 50.8053 121.258C48.7513 121.258 46.5673 119.802 46.4893 116.786H57.2533ZM50.7273 110.806C53.2493 110.806 54.6793 112.782 54.7573 114.758H46.5153C46.7233 111.95 48.6473 110.806 50.7273 110.806ZM68.6687 123H71.0347V109.012H68.6687V116.708C68.6687 119.724 67.3687 121.284 65.1067 121.284C62.5067 121.284 62.1687 119.412 62.1687 117.254V109.012H59.8027V117.956C59.8027 121.154 61.0507 123.338 64.2747 123.338C66.5887 123.338 67.8627 122.324 68.6687 120.998V123ZM75.464 109.012H73.254V110.91H75.464V119.49C75.464 122.402 76.088 123 78.766 123H80.482V121.024H79.286C77.934 121.024 77.83 120.66 77.83 119.204V110.91H80.482V109.012H77.83V105.502H75.464V109.012ZM90.2111 108.96C89.9251 108.934 89.7431 108.934 89.5091 108.934C87.6631 109.012 86.2591 109.87 85.5571 111.456V109.012H83.2431V123H85.6091V115.668C85.6091 112.574 86.7011 111.378 88.8851 111.378C89.2751 111.378 89.7171 111.404 90.2111 111.482V108.96ZM100.791 117.15C100.791 120.452 98.6855 121.466 96.4755 121.466C94.7855 121.466 93.7715 120.582 93.7715 119.256C93.7715 117.332 96.5015 116.682 100.791 116.266V117.15ZM95.9555 123.338C98.4515 123.338 99.8815 122.532 100.739 121.076C100.765 121.908 100.843 122.48 100.921 123H103.313C103.027 121.674 102.923 120.088 102.949 117.722L102.975 114.498C103.001 110.546 101.285 108.726 97.4115 108.726C94.7075 108.726 92.0035 110.416 91.7955 113.432H94.2395C94.3435 111.69 95.4615 110.65 97.4375 110.65C99.2055 110.65 100.609 111.482 100.609 114.056V114.394C94.8895 115.018 91.1455 116.006 91.1455 119.308C91.1455 121.882 93.3295 123.338 95.9555 123.338ZM108.867 104.15H106.501V123H108.867V104.15Z" fill="#ECEDEE"/>
<path d="M29.938 64.062L29.564 67.7H34.188L33.474 72.834H28.748L28.306 76.438H32.964L32.08 83H36.296L37.18 76.438H41.702L40.818 83H45.034L45.918 76.438H50.712L51.086 72.834H46.428L47.142 67.7H51.902L52.344 64.062H47.652L48.434 58.35H44.218L43.436 64.062H38.914L39.696 58.35H35.48L34.698 64.062H29.938ZM38.404 67.7H42.926L42.212 72.834H37.69L38.404 67.7ZM52.5347 62.294H65.9307C60.4227 67.428 55.8327 74.5 55.4587 83H60.6267C61.0687 74.16 64.2307 68.788 70.6567 62.294V58.35H52.5347V62.294ZM80.8488 57.908C75.6808 57.908 72.2808 60.594 72.2808 64.266C72.2808 66.442 73.2668 68.618 75.3068 69.808C72.5528 71.338 71.5328 73.548 71.5328 75.962C71.5328 80.756 75.6808 83.442 80.8488 83.442C86.0848 83.442 90.1988 80.756 90.1988 75.962C90.1988 73.548 89.2128 71.406 86.4588 69.808C88.6008 68.482 89.4508 66.442 89.4508 64.232C89.4508 60.594 86.0848 57.908 80.8488 57.908ZM80.8488 71.712C83.6708 71.712 85.4048 73.31 85.4048 75.758C85.4048 78.206 83.6708 79.906 80.8488 79.906C78.0948 79.906 76.3268 78.206 76.3268 75.758C76.3268 73.31 78.0948 71.712 80.8488 71.712ZM84.8948 64.81C84.8948 66.85 83.2968 68.346 80.8488 68.346C78.4008 68.346 76.8368 66.85 76.8368 64.81C76.8368 62.77 78.4008 61.444 80.8488 61.444C83.2968 61.444 84.8948 62.77 84.8948 64.81ZM91.648 62.294H105.044C99.536 67.428 94.946 74.5 94.572 83H99.74C100.182 74.16 103.344 68.788 109.77 62.294V58.35H91.648V62.294ZM111.292 83H116.154V72.358H128.53V68.414H116.154V62.294H129.244V58.35H111.292V83ZM140.116 57.908C134.948 57.908 131.548 60.594 131.548 64.266C131.548 66.442 132.534 68.618 134.574 69.808C131.82 71.338 130.8 73.548 130.8 75.962C130.8 80.756 134.948 83.442 140.116 83.442C145.352 83.442 149.466 80.756 149.466 75.962C149.466 73.548 148.48 71.406 145.726 69.808C147.868 68.482 148.718 66.442 148.718 64.232C148.718 60.594 145.352 57.908 140.116 57.908ZM140.116 71.712C142.938 71.712 144.672 73.31 144.672 75.758C144.672 78.206 142.938 79.906 140.116 79.906C137.362 79.906 135.594 78.206 135.594 75.758C135.594 73.31 137.362 71.712 140.116 71.712ZM144.162 64.81C144.162 66.85 142.564 68.346 140.116 68.346C137.668 68.346 136.104 66.85 136.104 64.81C136.104 62.77 137.668 61.444 140.116 61.444C142.564 61.444 144.162 62.77 144.162 64.81ZM161.626 79.906C158.6 79.906 157.138 77.798 156.866 75.248H152.446C152.718 79.498 155.778 83.442 161.558 83.442C166.624 83.442 170.84 80.314 170.84 74.874C170.84 69.196 166.93 66.204 162.714 66.204C160.402 66.204 158.872 66.782 157.818 67.564L158.498 62.294H169.854V58.35H154.656L153.024 71.916L157.308 72.12C157.818 70.93 159.348 69.876 161.524 69.876C163.802 69.876 166.08 71.508 166.08 74.908C166.08 78.036 164.21 79.906 161.626 79.906Z" fill="#ECEDEE"/>
</svg>
