<svg width="530" height="156" viewBox="0 0 530 156" fill="none" xmlns="http://www.w3.org/2000/svg">
<rect width="530" height="156" rx="24" fill="#10B3A3"/>
<path d="M29.872 109.012V127.55H32.238V120.894C33.096 122.376 34.552 123.338 36.814 123.338C40.038 123.338 42.794 120.712 42.794 116.058C42.794 111.482 40.038 108.778 36.814 108.778C34.552 108.778 33.096 109.74 32.238 111.222V109.012H29.872ZM32.134 116.058C32.134 112.366 34.11 110.806 36.216 110.806C38.634 110.806 40.22 112.704 40.22 116.058C40.22 119.412 38.634 121.31 36.216 121.31C34.11 121.31 32.134 119.75 32.134 116.058ZM52.5314 108.96C52.2454 108.934 52.0634 108.934 51.8294 108.934C49.9834 109.012 48.5794 109.87 47.8774 111.456V109.012H45.5634V123H47.9294V115.668C47.9294 112.574 49.0214 111.378 51.2054 111.378C51.5954 111.378 52.0374 111.404 52.5314 111.482V108.96ZM54.8056 109.012V123H57.1716V109.012H54.8056ZM54.8056 104.15V107.01H57.1716V104.15H54.8056ZM63.2907 115.408C63.2907 112.392 64.6167 110.832 66.6707 110.832C69.2447 110.832 69.6607 112.704 69.6607 114.862V123H72.0267V115.408C72.0267 112.392 73.3527 110.832 75.4067 110.832C77.9807 110.832 78.3967 112.704 78.3967 114.862V123H80.7627V114.16C80.7627 110.962 79.4887 108.778 76.2387 108.778C74.2627 108.778 72.6507 109.506 71.5327 111.248C70.9087 109.688 69.6607 108.778 67.5027 108.778C65.3967 108.778 64.0967 109.792 63.2907 111.118V109.012H60.9247V123H63.2907V115.408ZM93.1235 117.15C93.1235 120.452 91.0175 121.466 88.8075 121.466C87.1175 121.466 86.1035 120.582 86.1035 119.256C86.1035 117.332 88.8335 116.682 93.1235 116.266V117.15ZM88.2875 123.338C90.7835 123.338 92.2135 122.532 93.0715 121.076C93.0975 121.908 93.1755 122.48 93.2535 123H95.6455C95.3595 121.674 95.2555 120.088 95.2815 117.722L95.3075 114.498C95.3335 110.546 93.6175 108.726 89.7435 108.726C87.0395 108.726 84.3355 110.416 84.1275 113.432H86.5715C86.6755 111.69 87.7935 110.65 89.7695 110.65C91.5375 110.65 92.9415 111.482 92.9415 114.056V114.394C87.2215 115.018 83.4775 116.006 83.4775 119.308C83.4775 121.882 85.6615 123.338 88.2875 123.338ZM105.801 108.96C105.515 108.934 105.333 108.934 105.099 108.934C103.253 109.012 101.849 109.87 101.147 111.456V109.012H98.8329V123H101.199V115.668C101.199 112.574 102.291 111.378 104.475 111.378C104.865 111.378 105.307 111.404 105.801 111.482V108.96ZM115.849 109.012L112.391 119.802L108.829 109.012H106.203L111.247 123L111.143 123.286C110.519 125.47 109.765 125.574 108.205 125.574H107.243V127.55H108.465C111.611 127.55 112.287 126.614 113.327 123.598L118.319 109.012H115.849Z" fill="#ECEDEE"/>
<path d="M29.938 64.062L29.564 67.7H34.188L33.474 72.834H28.748L28.306 76.438H32.964L32.08 83H36.296L37.18 76.438H41.702L40.818 83H45.034L45.918 76.438H50.712L51.086 72.834H46.428L47.142 67.7H51.902L52.344 64.062H47.652L48.434 58.35H44.218L43.436 64.062H38.914L39.696 58.35H35.48L34.698 64.062H29.938ZM38.404 67.7H42.926L42.212 72.834H37.69L38.404 67.7ZM62.6327 83V58.35H59.0627C57.9067 61.036 56.1727 61.274 52.6367 61.376V64.572H57.9407V83H62.6327ZM76.4755 83.442C83.0035 83.442 86.3695 78.104 86.3695 70.624C86.3695 63.144 83.0035 57.908 76.4755 57.908C69.8795 57.908 66.5475 63.144 66.5475 70.624C66.5475 78.104 69.8795 83.442 76.4755 83.442ZM76.4755 79.906C73.1095 79.906 71.3415 76.574 71.3415 70.624C71.3415 64.674 73.1095 61.444 76.4755 61.444C79.8415 61.444 81.5755 64.674 81.5755 70.624C81.5755 76.574 79.8415 79.906 76.4755 79.906ZM89.9424 83H99.9384C105.004 83 109.39 81.028 109.39 75.724C109.39 72.324 107.622 70.896 105.718 69.978C106.976 69.162 108.506 67.088 108.506 64.776C108.506 59.71 103.848 58.35 99.5304 58.35H89.9424V83ZM94.8044 72.188H99.9724C102.998 72.188 104.426 73.412 104.426 75.724C104.426 78.002 103.032 79.192 100.176 79.192H94.8044V72.188ZM94.8044 62.158H99.8364C102.114 62.158 103.508 63.314 103.508 65.252C103.508 67.428 102.148 68.516 99.8364 68.516H94.8044V62.158ZM120.477 79.906C117.383 79.906 115.853 77.73 115.479 75.248H111.059C111.331 79.77 114.697 83.442 120.341 83.442C125.543 83.442 129.861 80.926 129.861 75.928C129.861 73.446 128.433 71.032 125.883 69.944C127.787 68.89 129.215 66.952 129.215 64.538C129.215 59.88 124.965 57.908 120.851 57.908C115.173 57.908 111.807 60.866 111.263 65.796H115.717C115.955 63.212 117.723 61.444 120.579 61.444C122.619 61.444 124.489 62.6 124.489 64.742C124.489 67.054 122.279 68.346 118.743 68.346H117.927V72.018H118.913C122.415 72.018 125.101 73.174 125.101 76.064C125.101 78.376 123.061 79.906 120.477 79.906ZM131.195 83H136.159L137.893 78.002H147.481L149.215 83H154.485L145.271 58.35H140.375L131.195 83ZM142.687 64.3L146.087 74.024H139.287L142.687 64.3ZM164.637 79.906C161.543 79.906 160.013 77.73 159.639 75.248H155.219C155.491 79.77 158.857 83.442 164.501 83.442C169.703 83.442 174.021 80.926 174.021 75.928C174.021 73.446 172.593 71.032 170.043 69.944C171.947 68.89 173.375 66.952 173.375 64.538C173.375 59.88 169.125 57.908 165.011 57.908C159.333 57.908 155.967 60.866 155.423 65.796H159.877C160.115 63.212 161.883 61.444 164.739 61.444C166.779 61.444 168.649 62.6 168.649 64.742C168.649 67.054 166.439 68.346 162.903 68.346H162.087V72.018H163.073C166.575 72.018 169.261 73.174 169.261 76.064C169.261 78.376 167.221 79.906 164.637 79.906Z" fill="#ECEDEE"/>
</svg>
