<svg width="530" height="156" viewBox="0 0 530 156" fill="none" xmlns="http://www.w3.org/2000/svg">
<rect width="530" height="156" rx="24" fill="#F04F88"/>
<path d="M38.686 117.15C38.686 120.452 36.58 121.466 34.37 121.466C32.68 121.466 31.666 120.582 31.666 119.256C31.666 117.332 34.396 116.682 38.686 116.266V117.15ZM33.85 123.338C36.346 123.338 37.776 122.532 38.634 121.076C38.66 121.908 38.738 122.48 38.816 123H41.208C40.922 121.674 40.818 120.088 40.844 117.722L40.87 114.498C40.896 110.546 39.18 108.726 35.306 108.726C32.602 108.726 29.898 110.416 29.69 113.432H32.134C32.238 111.69 33.356 110.65 35.332 110.65C37.1 110.65 38.504 111.482 38.504 114.056V114.394C32.784 115.018 29.04 116.006 29.04 119.308C29.04 121.882 31.224 123.338 33.85 123.338ZM50.1934 108.778C46.0594 108.778 43.4334 111.872 43.4334 116.032C43.4334 120.296 45.9294 123.338 49.9594 123.338C53.2354 123.338 55.7054 121.076 56.1994 118.45H53.7554C53.4174 119.906 52.0394 121.258 50.0374 121.258C47.9574 121.258 46.0074 119.542 46.0074 116.006C46.0074 112.496 47.9574 110.858 50.0374 110.858C51.8834 110.858 53.3134 112.028 53.6514 113.692H56.0434C55.7054 111.3 53.6254 108.778 50.1934 108.778ZM64.793 108.778C60.659 108.778 58.033 111.872 58.033 116.032C58.033 120.296 60.529 123.338 64.559 123.338C67.835 123.338 70.305 121.076 70.799 118.45H68.355C68.017 119.906 66.639 121.258 64.637 121.258C62.557 121.258 60.607 119.542 60.607 116.006C60.607 112.496 62.557 110.858 64.637 110.858C66.483 110.858 67.913 112.028 68.251 113.692H70.643C70.305 111.3 68.225 108.778 64.793 108.778ZM85.9447 116.786C86.2307 112.34 83.7087 108.778 79.4187 108.778C75.5967 108.778 72.6327 111.586 72.6327 116.032C72.6327 120.166 75.0767 123.338 79.4967 123.338C82.9027 123.338 85.1387 121.336 85.7627 118.944H83.3187C82.7207 120.322 81.5767 121.258 79.4967 121.258C77.4427 121.258 75.2587 119.802 75.1807 116.786H85.9447ZM79.4187 110.806C81.9407 110.806 83.3707 112.782 83.4487 114.758H75.2067C75.4147 111.95 77.3387 110.806 79.4187 110.806ZM91.0681 109.012H88.7021V123H91.0681V115.408C91.0681 112.392 92.4721 110.832 94.7601 110.832C97.4641 110.832 97.8281 112.704 97.8281 114.862V123H100.194V114.16C100.194 110.962 98.9721 108.778 95.5921 108.778C93.2261 108.778 91.8741 109.792 91.0681 111.118V109.012ZM104.409 109.012H102.199V110.91H104.409V119.49C104.409 122.402 105.033 123 107.711 123H109.427V121.024H108.231C106.879 121.024 106.775 120.66 106.775 119.204V110.91H109.427V109.012H106.775V105.502H104.409V109.012Z" fill="#ECEDEE"/>
<path d="M29.938 64.062L29.564 67.7H34.188L33.474 72.834H28.748L28.306 76.438H32.964L32.08 83H36.296L37.18 76.438H41.702L40.818 83H45.034L45.918 76.438H50.712L51.086 72.834H46.428L47.142 67.7H51.902L52.344 64.062H47.652L48.434 58.35H44.218L43.436 64.062H38.914L39.696 58.35H35.48L34.698 64.062H29.938ZM38.404 67.7H42.926L42.212 72.834H37.69L38.404 67.7ZM54.8467 83H59.7087V72.358H72.0847V68.414H59.7087V62.294H72.7987V58.35H54.8467V83ZM84.079 83.442C90.607 83.442 93.973 78.104 93.973 70.624C93.973 63.144 90.607 57.908 84.079 57.908C77.483 57.908 74.151 63.144 74.151 70.624C74.151 78.104 77.483 83.442 84.079 83.442ZM84.079 79.906C80.713 79.906 78.945 76.574 78.945 70.624C78.945 64.674 80.713 61.444 84.079 61.444C87.445 61.444 89.179 64.674 89.179 70.624C89.179 76.574 87.445 79.906 84.079 79.906ZM107.78 64.3V73.106H100.742L107.78 64.3ZM116.654 73.106H112.438V58.35H107.848L95.6079 73.412V77.084H107.78V83H112.438V77.084H116.654V73.106ZM119.095 83H123.957V72.358H136.333V68.414H123.957V62.294H137.047V58.35H119.095V83ZM147.919 57.908C142.751 57.908 139.351 60.594 139.351 64.266C139.351 66.442 140.337 68.618 142.377 69.808C139.623 71.338 138.603 73.548 138.603 75.962C138.603 80.756 142.751 83.442 147.919 83.442C153.155 83.442 157.269 80.756 157.269 75.962C157.269 73.548 156.283 71.406 153.529 69.808C155.671 68.482 156.521 66.442 156.521 64.232C156.521 60.594 153.155 57.908 147.919 57.908ZM147.919 71.712C150.741 71.712 152.475 73.31 152.475 75.758C152.475 78.206 150.741 79.906 147.919 79.906C145.165 79.906 143.397 78.206 143.397 75.758C143.397 73.31 145.165 71.712 147.919 71.712ZM151.965 64.81C151.965 66.85 150.367 68.346 147.919 68.346C145.471 68.346 143.907 66.85 143.907 64.81C143.907 62.77 145.471 61.444 147.919 61.444C150.367 61.444 151.965 62.77 151.965 64.81ZM169.7 57.908C164.532 57.908 161.132 60.594 161.132 64.266C161.132 66.442 162.118 68.618 164.158 69.808C161.404 71.338 160.384 73.548 160.384 75.962C160.384 80.756 164.532 83.442 169.7 83.442C174.936 83.442 179.05 80.756 179.05 75.962C179.05 73.548 178.064 71.406 175.31 69.808C177.452 68.482 178.302 66.442 178.302 64.232C178.302 60.594 174.936 57.908 169.7 57.908ZM169.7 71.712C172.522 71.712 174.256 73.31 174.256 75.758C174.256 78.206 172.522 79.906 169.7 79.906C166.946 79.906 165.178 78.206 165.178 75.758C165.178 73.31 166.946 71.712 169.7 71.712ZM173.746 64.81C173.746 66.85 172.148 68.346 169.7 68.346C167.252 68.346 165.688 66.85 165.688 64.81C165.688 62.77 167.252 61.444 169.7 61.444C172.148 61.444 173.746 62.77 173.746 64.81Z" fill="#ECEDEE"/>
</svg>
