<svg width="139" height="25" viewBox="0 0 139 25" fill="none" xmlns="http://www.w3.org/2000/svg">
<path d="M35.0488 3.08887V21.9031H38.3451V14.7926H41.3039C45.7422 14.7926 49.246 13.7546 49.246 9.00561C49.246 3.73763 45.3788 3.08887 41.252 3.08887H35.0488ZM41.252 5.73583C43.562 5.73583 45.82 5.99534 45.82 9.03156C45.82 11.7304 43.8994 12.0937 41.4077 12.0937H38.3451V5.73583H41.252Z" fill="#FBFCFD"/>
<path d="M58.5934 7.96759C58.3598 7.94163 58.0224 7.91568 57.7888 7.91568C56.1017 7.94163 54.7521 8.87586 53.9994 10.4329V7.94163H50.9627V21.9031H54.0513V14.585C54.0513 11.7823 55.1674 11.0038 57.114 11.0038C57.5811 11.0038 58.0743 11.0298 58.5934 11.0817V7.96759Z" fill="#FBFCFD"/>
<path d="M60.5436 3.08887V6.20294H63.6322V3.08887H60.5436ZM60.5436 7.94163V21.9031H63.6322V7.94163H60.5436Z" fill="#FBFCFD"/>
<path d="M70.1969 14.4812C70.1969 11.964 70.9756 10.1474 73.2596 10.1474C75.5436 10.1474 75.7253 11.9899 75.7253 13.8843V21.9031H78.8139V14.4812C78.8139 11.964 79.5925 10.1474 81.8765 10.1474C84.1605 10.1474 84.3422 11.9899 84.3422 13.8843V21.9031H87.4308V13.1318C87.4308 9.81008 86.185 7.63023 82.8628 7.63023C81.1239 7.63023 79.5406 8.33089 78.3208 10.0955C77.6719 8.5385 76.4261 7.63023 74.2459 7.63023C72.3771 7.63023 71.0015 8.4347 70.1969 9.88793V7.94163H67.1083V21.9031H70.1969V14.4812Z" fill="#FBFCFD"/>
<path d="M90.6551 3.08887V6.20294H93.7437V3.08887H90.6551ZM90.6551 7.94163V21.9031H93.7437V7.94163H90.6551Z" fill="#FBFCFD"/>
<path d="M97.661 7.94163H95.5847V10.1734H97.661V18.244C97.661 21.0986 98.258 21.9031 101.243 21.9031H103.527V19.5416H102.411C101.087 19.5416 100.75 19.2042 100.75 17.7769V10.1734H103.553V7.94163H100.75V4.25665H97.661V7.94163Z" fill="#FBFCFD"/>
<path d="M106.04 3.08887V6.20294H109.129V3.08887H106.04ZM106.04 7.94163V21.9031H109.129V7.94163H106.04Z" fill="#FBFCFD"/>
<path d="M114.266 7.94163H110.866L115.953 21.9031H118.86L123.895 7.94163H120.677L117.485 17.9067L114.266 7.94163Z" fill="#FBFCFD"/>
<path d="M137.994 15.8047C138.279 11.1336 135.58 7.63023 131.297 7.63023C127.326 7.63023 124.445 10.6145 124.445 14.8186C124.445 18.8409 127.015 22.2404 131.505 22.2404C135.087 22.2404 137.215 19.9568 137.838 17.725H134.801C134.256 19.0485 133.01 19.6713 131.375 19.6713C129.61 19.6713 127.793 18.3997 127.586 15.8047H137.994ZM131.297 10.0436C133.114 10.0436 134.775 11.3671 134.853 13.547H127.586C127.871 10.926 129.844 10.0436 131.297 10.0436Z" fill="#FBFCFD"/>
<path d="M14.4357 25L28.8715 0H20.6343V3.08896H23.5209L14.4357 18.8227L5.35061 3.08896H8.23723V0H0L14.4357 25Z" fill="#FBFCFD"/>
<path d="M11.3262 0V3.08896H17.5453V0H11.3262Z" fill="#FBFCFD"/>
</svg>
