<svg width="604" height="110" viewBox="0 0 604 110" fill="none" xmlns="http://www.w3.org/2000/svg">
<path d="M153.142 13.496V95.697H167.544V64.6307H180.471C199.863 64.6307 215.171 60.0955 215.171 39.3468C215.171 16.3305 198.275 13.496 180.245 13.496H153.142ZM180.245 25.0608C190.337 25.0608 200.203 26.1946 200.203 39.4602C200.203 51.2518 191.811 52.8391 180.925 52.8391H167.544V25.0608H180.245Z" fill="#151718"/>
<path d="M256.011 34.8116C254.99 34.6982 253.516 34.5848 252.495 34.5848C245.124 34.6982 239.228 38.7799 235.939 45.5827V34.6982H222.672V95.697H236.166V63.7237C236.166 51.4785 241.042 48.0771 249.547 48.0771C251.588 48.0771 253.743 48.1905 256.011 48.4173V34.8116Z" fill="#151718"/>
<path d="M264.532 13.496V27.1017H278.026V13.496H264.532ZM264.532 34.6982V95.697H278.026V34.6982H264.532Z" fill="#151718"/>
<path d="M306.708 63.2701C306.708 52.2722 310.11 44.3355 320.089 44.3355C330.068 44.3355 330.862 52.3856 330.862 60.6624V95.697H344.356V63.2701C344.356 52.2722 347.758 44.3355 357.737 44.3355C367.716 44.3355 368.51 52.3856 368.51 60.6624V95.697H382.004V57.3743C382.004 42.8616 376.561 33.3376 362.046 33.3376C354.449 33.3376 347.531 36.3989 342.201 44.1088C339.367 37.3059 333.923 33.3376 324.398 33.3376C316.233 33.3376 310.223 36.8524 306.708 43.2017V34.6982H293.213V95.697H306.708V63.2701Z" fill="#151718"/>
<path d="M396.091 13.496V27.1017H409.586V13.496H396.091ZM396.091 34.6982V95.697H409.586V34.6982H396.091Z" fill="#151718"/>
<path d="M426.701 34.6982H417.629V44.4489H426.701V79.7104C426.701 92.1822 429.309 95.697 442.35 95.697H452.329V85.3794H447.453C441.67 85.3794 440.195 83.9054 440.195 77.6695V44.4489H452.443V34.6982H440.195V18.5981H426.701V34.6982Z" fill="#151718"/>
<path d="M463.311 13.496V27.1017H476.805V13.496H463.311ZM463.311 34.6982V95.697H476.805V34.6982H463.311Z" fill="#151718"/>
<path d="M499.25 34.6982H484.395L506.621 95.697H519.322L541.321 34.6982H527.26L513.312 78.2364L499.25 34.6982Z" fill="#151718"/>
<path d="M602.918 69.0526C604.165 48.644 592.372 33.3376 573.661 33.3376C556.311 33.3376 543.724 46.3764 543.724 64.7441C543.724 82.3181 554.95 97.171 574.568 97.171C590.217 97.171 599.516 87.1935 602.237 77.4427H588.97C586.588 83.2252 581.145 85.9463 574.001 85.9463C566.29 85.9463 558.352 80.3906 557.445 69.0526H602.918ZM573.661 43.882C581.599 43.882 588.856 49.6644 589.197 59.1884H557.445C558.692 47.737 567.311 43.882 573.661 43.882Z" fill="#151718"/>
<path d="M63.0712 109.227L126.142 0H90.1531V13.496H102.765L63.0712 82.2382L23.3773 13.496H35.9893V0H0L63.0712 109.227Z" fill="#151718"/>
<path d="M49.4852 0V13.496H76.6571V0H49.4852Z" fill="#151718"/>
</svg>
