<svg width="603" height="110" viewBox="0 0 603 110" fill="none" xmlns="http://www.w3.org/2000/svg">
<path d="M153.134 13.496V95.697H167.536V64.6307H180.463C199.854 64.6307 215.163 60.0955 215.163 39.3468C215.163 16.3305 198.267 13.496 180.236 13.496H153.134ZM180.236 25.0608C190.329 25.0608 200.195 26.1946 200.195 39.4602C200.195 51.2518 191.803 52.8391 180.917 52.8391H167.536V25.0608H180.236Z" fill="#FBFCFD"/>
<path d="M256.003 34.8116C254.982 34.6982 253.508 34.5848 252.487 34.5848C245.116 34.6982 239.22 38.7799 235.931 45.5827V34.6982H222.663V95.697H236.158V63.7237C236.158 51.4785 241.034 48.0771 249.539 48.0771C251.58 48.0771 253.735 48.1905 256.003 48.4173V34.8116Z" fill="#FBFCFD"/>
<path d="M264.523 13.496V27.1017H278.018V13.496H264.523ZM264.523 34.6982V95.697H278.018V34.6982H264.523Z" fill="#FBFCFD"/>
<path d="M306.7 63.2701C306.7 52.2722 310.102 44.3355 320.081 44.3355C330.06 44.3355 330.853 52.3856 330.853 60.6624V95.697H344.348V63.2701C344.348 52.2722 347.75 44.3355 357.729 44.3355C367.708 44.3355 368.502 52.3856 368.502 60.6624V95.697H381.996V57.3743C381.996 42.8616 376.553 33.3376 362.038 33.3376C354.44 33.3376 347.523 36.3989 342.193 44.1088C339.358 37.3059 333.915 33.3376 324.39 33.3376C316.225 33.3376 310.215 36.8524 306.7 43.2017V34.6982H293.205V95.697H306.7V63.2701Z" fill="#FBFCFD"/>
<path d="M396.083 13.496V27.1017H409.578V13.496H396.083ZM396.083 34.6982V95.697H409.578V34.6982H396.083Z" fill="#FBFCFD"/>
<path d="M426.693 34.6982H417.621V44.4489H426.693V79.7104C426.693 92.1822 429.301 95.697 442.342 95.697H452.321V85.3794H447.445C441.661 85.3794 440.187 83.9054 440.187 77.6695V44.4489H452.434V34.6982H440.187V18.5981H426.693V34.6982Z" fill="#FBFCFD"/>
<path d="M463.303 13.496V27.1017H476.797V13.496H463.303ZM463.303 34.6982V95.697H476.797V34.6982H463.303Z" fill="#FBFCFD"/>
<path d="M499.242 34.6982H484.387L506.613 95.697H519.314L541.313 34.6982H527.252L513.304 78.2364L499.242 34.6982Z" fill="#FBFCFD"/>
<path d="M602.91 69.0526C604.157 48.644 592.364 33.3376 573.653 33.3376C556.303 33.3376 543.716 46.3764 543.716 64.7441C543.716 82.3181 554.942 97.171 574.56 97.171C590.209 97.171 599.508 87.1935 602.229 77.4427H588.962C586.58 83.2252 581.137 85.9463 573.993 85.9463C566.282 85.9463 558.344 80.3906 557.437 69.0526H602.91ZM573.653 43.882C581.591 43.882 588.848 49.6644 589.188 59.1884H557.437C558.684 47.737 567.303 43.882 573.653 43.882Z" fill="#FBFCFD"/>
<path d="M63.0712 109.227L126.142 0H90.1531V13.496H102.765L63.0712 82.2382L23.3773 13.496H35.9893V0H0L63.0712 109.227Z" fill="#FBFCFD"/>
<path d="M49.4852 0V13.496H76.6571V0H49.4852Z" fill="#FBFCFD"/>
</svg>
