<svg width="315" height="150" viewBox="0 0 315 150" fill="none" xmlns="http://www.w3.org/2000/svg">
<rect width="315" height="150" fill="#FBFCFD"/>
<path d="M94.4912 57.6837V92.3019H100.556V79.2186H106.001C114.167 79.2186 120.614 77.3086 120.614 68.5705C120.614 58.8774 113.498 57.6837 105.905 57.6837H94.4912ZM105.905 62.5541C110.155 62.5541 114.31 63.0316 114.31 68.6183C114.31 73.5842 110.776 74.2527 106.192 74.2527H100.556V62.5541H105.905Z" fill="#151718"/>
<path d="M137.813 66.6606C137.383 66.6128 136.763 66.5651 136.333 66.5651C133.229 66.6128 130.745 68.3318 129.36 71.1967V66.6128H123.773V92.3019H129.456V78.8366C129.456 73.6797 131.509 72.2472 135.091 72.2472C135.951 72.2472 136.858 72.295 137.813 72.3905V66.6606Z" fill="#151718"/>
<path d="M141.402 57.6837V63.4136H147.085V57.6837H141.402ZM141.402 66.6128V92.3019H147.085V66.6128H141.402Z" fill="#151718"/>
<path d="M159.164 78.6456C159.164 74.0139 160.596 70.6715 164.799 70.6715C169.002 70.6715 169.336 74.0617 169.336 77.5474V92.3019H175.019V78.6456C175.019 74.0139 176.452 70.6715 180.654 70.6715C184.857 70.6715 185.191 74.0617 185.191 77.5474V92.3019H190.874V76.1626C190.874 70.0507 188.582 66.0398 182.469 66.0398C179.269 66.0398 176.356 67.329 174.112 70.576C172.918 67.711 170.625 66.0398 166.614 66.0398C163.175 66.0398 160.644 67.52 159.164 70.194V66.6128H153.481V92.3019H159.164V78.6456Z" fill="#151718"/>
<path d="M196.807 57.6837V63.4136H202.49V57.6837H196.807ZM196.807 66.6128V92.3019H202.49V66.6128H196.807Z" fill="#151718"/>
<path d="M209.698 66.6128H205.877V70.7192H209.698V85.5692C209.698 90.8216 210.796 92.3019 216.288 92.3019H220.491V87.9567H218.437C216.002 87.9567 215.381 87.3359 215.381 84.7097V70.7192H220.538V66.6128H215.381V59.8324H209.698V66.6128Z" fill="#151718"/>
<path d="M225.116 57.6837V63.4136H230.799V57.6837H225.116ZM225.116 66.6128V92.3019H230.799V66.6128H225.116Z" fill="#151718"/>
<path d="M240.251 66.6128H233.995L243.355 92.3019H248.704L257.969 66.6128H252.047L246.173 84.9485L240.251 66.6128Z" fill="#151718"/>
<path d="M283.91 81.0808C284.435 72.486 279.468 66.0398 271.588 66.0398C264.282 66.0398 258.981 71.531 258.981 79.2663C258.981 86.6675 263.709 92.9226 271.97 92.9226C278.561 92.9226 282.477 88.7207 283.623 84.6142H278.036C277.033 87.0494 274.74 88.1954 271.732 88.1954C268.484 88.1954 265.141 85.8557 264.759 81.0808H283.91ZM271.588 70.4805C274.931 70.4805 277.988 72.9157 278.131 76.9266H264.759C265.284 72.104 268.914 70.4805 271.588 70.4805Z" fill="#151718"/>
<path d="M56.5618 98L83.1236 52H67.9671V57.6837H73.2784L56.5618 86.6338L39.8451 57.6837H45.1565V52H30L56.5618 98Z" fill="#151718"/>
<path d="M50.8402 52V57.6837H62.2834V52H50.8402Z" fill="#151718"/>
</svg>
